<svg width="81" height="26" viewBox="0 0 81 26" fill="none" xmlns="http://www.w3.org/2000/svg">
<path d="M0.344 18.184H4.664C4.664 19.368 5.096 20.312 5.96 21.016C6.824 21.688 7.992 22.024 9.464 22.024C11.064 22.024 12.296 21.72 13.16 21.112C14.024 20.472 14.456 19.624 14.456 18.568C14.456 17.8 14.216 17.16 13.736 16.648C13.288 16.136 12.456 15.72 11.24 15.4L7.112 14.44C5.032 13.928 3.48 13.144 2.456 12.088C1.464 11.032 0.968 9.64 0.968 7.912C0.968 6.472 1.336 5.224 2.072 4.168C2.84 3.112 3.88 2.296 5.192 1.72C6.536 1.144 8.072 0.855999 9.8 0.855999C11.528 0.855999 13.016 1.16 14.264 1.768C15.544 2.376 16.536 3.224 17.24 4.312C17.976 5.4 18.36 6.696 18.392 8.2H14.072C14.04 6.984 13.64 6.04 12.872 5.368C12.104 4.696 11.032 4.36 9.656 4.36C8.248 4.36 7.16 4.664 6.392 5.272C5.624 5.88 5.24 6.712 5.24 7.768C5.24 9.336 6.392 10.408 8.696 10.984L12.824 11.992C14.808 12.44 16.296 13.176 17.288 14.2C18.28 15.192 18.776 16.552 18.776 18.28C18.776 19.752 18.376 21.048 17.576 22.168C16.776 23.256 15.672 24.104 14.264 24.712C12.888 25.288 11.256 25.576 9.368 25.576C6.616 25.576 4.424 24.904 2.792 23.56C1.16 22.216 0.344 20.424 0.344 18.184ZM21.8596 18.184H26.1796C26.1796 19.368 26.6116 20.312 27.4756 21.016C28.3396 21.688 29.5076 22.024 30.9796 22.024C32.5796 22.024 33.8116 21.72 34.6756 21.112C35.5396 20.472 35.9716 19.624 35.9716 18.568C35.9716 17.8 35.7316 17.16 35.2516 16.648C34.8036 16.136 33.9716 15.72 32.7556 15.4L28.6276 14.44C26.5476 13.928 24.9956 13.144 23.9716 12.088C22.9796 11.032 22.4836 9.64 22.4836 7.912C22.4836 6.472 22.8516 5.224 23.5876 4.168C24.3556 3.112 25.3956 2.296 26.7076 1.72C28.0516 1.144 29.5876 0.855999 31.3156 0.855999C33.0436 0.855999 34.5316 1.16 35.7796 1.768C37.0596 2.376 38.0516 3.224 38.7556 4.312C39.4916 5.4 39.8756 6.696 39.9076 8.2H35.5876C35.5556 6.984 35.1556 6.04 34.3876 5.368C33.6196 4.696 32.5476 4.36 31.1716 4.36C29.7636 4.36 28.6756 4.664 27.9076 5.272C27.1396 5.88 26.7556 6.712 26.7556 7.768C26.7556 9.336 27.9076 10.408 30.2116 10.984L34.3396 11.992C36.3236 12.44 37.8116 13.176 38.8036 14.2C39.7956 15.192 40.2916 16.552 40.2916 18.28C40.2916 19.752 39.8916 21.048 39.0916 22.168C38.2916 23.256 37.1876 24.104 35.7796 24.712C34.4036 25.288 32.7716 25.576 30.8836 25.576C28.1316 25.576 25.9396 24.904 24.3076 23.56C22.6756 22.216 21.8596 20.424 21.8596 18.184ZM49.8073 25H45.2953V1.528H49.3273L49.9513 5.848L49.3753 5.464C49.8553 4.152 50.7353 3.064 52.0153 2.2C53.3273 1.304 54.9113 0.855999 56.7673 0.855999C58.8473 0.855999 60.5753 1.416 61.9513 2.536C63.3273 3.656 64.2233 5.144 64.6393 7H63.8233C64.1433 5.144 65.0233 3.656 66.4633 2.536C67.9033 1.416 69.6793 0.855999 71.7913 0.855999C74.4793 0.855999 76.5913 1.64 78.1273 3.208C79.6633 4.776 80.4313 6.92 80.4313 9.64V25H76.0153V10.744C76.0153 8.888 75.5353 7.464 74.5753 6.472C73.6473 5.448 72.3833 4.936 70.7833 4.936C69.6633 4.936 68.6713 5.192 67.8073 5.704C66.9753 6.184 66.3193 6.888 65.8393 7.816C65.3593 8.744 65.1193 9.832 65.1193 11.08V25H60.6553V10.696C60.6553 8.84 60.1913 7.432 59.2633 6.472C58.3353 5.48 57.0713 4.984 55.4713 4.984C54.3513 4.984 53.3593 5.24 52.4953 5.752C51.6633 6.232 51.0073 6.936 50.5273 7.864C50.0473 8.76 49.8073 9.832 49.8073 11.08V25Z" fill="#0D0D0D"/>
</svg>
